PathFileType	4	(X/Y/Z)	c:\Git\powerlifing_model_clean\simulations\HC835B\Session1\HC835B_CUT_0005\marker_experimental.trc
DataRate	CameraRate	NumFrames	NumMarkers	Units	OrigDataRate	OrigDataStartFrame	OrigNumFrames
240.000000	240.000000	4	38	mm	240.000000	9	75
Frame#	Time	RPSI			LPSI			RASI			LASI			RTH1			RTH2			RTH3			RTH4			RSK1			RSK2			RSK3			RSK4			RCAL1			RCAL2			RCAL3			RST			RPT			RTN			RFMB			RSMB			RVMB			RFMH			RSMH			RVMH			RPM			LTH1			LTH2			LTH3			LTH4			LSK1			LSK2			LSK3			LSK4			LCAL1			LCAL2			LCAL3			LFMH			LVMH			
		X1	Y1	Z1	X2	Y2	Z2	X3	Y3	Z3	X4	Y4	Z4	X5	Y5	Z5	X6	Y6	Z6	X7	Y7	Z7	X8	Y8	Z8	X9	Y9	Z9	X10	Y10	Z10	X11	Y11	Z11	X12	Y12	Z12	X13	Y13	Z13	X14	Y14	Z14	X15	Y15	Z15	X16	Y16	Z16	X17	Y17	Z17	X18	Y18	Z18	X19	Y19	Z19	X20	Y20	Z20	X21	Y21	Z21	X22	Y22	Z22	X23	Y23	Z23	X24	Y24	Z24	X25	Y25	Z25	X26	Y26	Z26	X27	Y27	Z27	X28	Y28	Z28	X29	Y29	Z29	X30	Y30	Z30	X31	Y31	Z31	X32	Y32	Z32	X33	Y33	Z33	X34	Y34	Z34	X35	Y35	Z35	X36	Y36	Z36	X37	Y37	Z37	X38	Y38	Z38	

10	0.0375	241.6694946289063	1053.90087890625	86.92662048339845	143.766830444336	1035.33154296875	125.6835327148438	230.6769561767579	1012.598937988281	-122.1790008544922	33.32452392578126	945.2681884765627	-37.95690536499024	403.544647216797	808.3469238281252	-204.0989074707032	367.4620971679688	818.498962402344	-252.2392120361329	401.2984619140626	748.7897949218751	-263.9653625488282	359.9915466308594	752.4822387695314	-305.3307800292969	533.6201171875001	360.6857910156251	-384.1001892089845	514.0061645507814	358.7545471191407	-442.2280883789064	543.6107177734376	312.4045410156251	-415.7790527343751	515.2498168945314	305.9612731933594	-468.4168395996095	574.3809814453126	149.8660125732422	-394.6915893554689	548.9364624023439	105.9107666015625	-399.8952636718751	608.7994384765626	122.5409393310547	-415.6710205078126	511.785858154297	122.2335891723633	-459.7848205566407	608.8922119140626	145.1954803466797	-476.049285888672	501.4547729492189	147.5746459960938	-512.5866699218751	499.9859313964845	134.9205474853516	-547.5029907226564	534.8994140625001	170.334213256836	-565.1069946289064	611.5217285156251	126.1242370605469	-525.7458496093751	489.6401367187501	111.7423400878907	-601.7625732421876	529.8721923828126	140.3316040039063	-626.8492431640626	605.9669799804689	123.1286697387696	-607.5321655273439	506.964324951172	135.6384887695313	-682.6586303710939	123.1570587158203	653.4383544921876	109.171012878418	109.0932693481446	629.2971191406251	54.91283416748048	153.7332916259766	574.7391967773439	95.31309509277345	151.9765167236328	557.0077514648439	36.80535125732423	377.2151794433594	452.3246154785157	378.6983337402344	385.8966369628907	400.1972961425782	383.6889953613282	405.0953979492189	426.9837341308595	420.755096435547	426.9817199707032	375.8062744140626	416.3257141113282	512.0155639648439	475.8176574707032	524.1638183593751	498.488250732422	470.3907775878907	569.9723510742189	553.3452758789064	476.5321655273439	547.8843994140626	593.2067871093751	259.5075378417969	524.5303344726564	503.826385498047	277.0541687011719	587.6647338867189	
11	0.04166666666666666	239.0432586669922	1052.70556640625	66.17313385009767	142.0525512695313	1034.889404296875	106.63525390625	226.130355834961	1010.028991699219	-143.3976287841797	28.76109695434571	944.4916992187502	-56.64521408081056	399.0010986328126	804.776062011719	-224.1726226806641	362.9332580566407	814.4424438476565	-272.1934204101563	396.2258605957032	744.3366088867189	-283.1079711914063	354.5854797363282	747.5733642578126	-324.2182617187501	531.5091552734376	354.6188354492188	-398.8535461425782	511.797821044922	352.3033752441407	-456.9693908691407	541.4128417968751	306.1849060058594	-430.2665100097657	513.0765380859376	299.3742370605469	-482.8920288085939	573.5947265625001	143.9370269775391	-408.4960021972657	548.5821533203126	99.78343200683597	-413.2278442382814	608.0255126953126	116.9927825927735	-429.7789001464845	510.5638732910157	115.2340164184571	-472.7060852050782	606.9204711914064	139.2485961914063	-490.4281311035157	498.9466857910157	140.6453857421875	-525.2858276367189	497.4554443359376	127.5096054077149	-560.3203735351564	531.7446899414064	163.2360229492188	-578.4833374023439	609.2646484375001	120.0588836669922	-539.8683471679689	486.5347290039064	103.6616821289063	-614.3970336914064	526.4370727539064	132.9503631591797	-640.0545654296876	602.7943115234376	116.7127685546875	-621.5541992187501	502.6548461914064	127.6599731445313	-695.5870361328126	118.5608673095703	649.4082641601564	85.80673980712892	102.7533035278321	626.4429321289064	31.95383071899415	147.3555297851563	571.2007446289064	70.53975677490236	144.2778015136719	554.0129394531251	11.78318023681641	367.4313659667969	457.1291809082032	349.4303283691407	376.5993347167969	405.0809326171876	355.9600524902344	395.2113647460939	433.428680419922	392.5273437500001	417.603729248047	382.2754516601563	389.7759704589845	501.0480957031251	486.4094848632814	495.6387023925782	487.3955993652345	481.0783691406251	541.3494873046876	542.3046264648439	488.199920654297	519.5787353515626	584.9878540039064	271.1639709472657	500.0198669433595	495.2010498046876	288.8954162597657	562.6619262695314	
12	0.04583333333333333	236.3035125732422	1050.651611328125	44.73314666748048	139.6831817626953	1033.254272460938	86.34172821044923	221.8909301757813	1007.282104492188	-164.6789703369141	24.24897575378419	943.6429443359377	-75.31864166259767	394.1052246093751	801.0291748046877	-244.1930541992188	358.1806335449219	810.1440429687502	-292.1639099121094	391.1501770019532	739.8402709960939	-302.3010559082032	349.2487792968751	742.5944824218751	-343.1846618652344	529.5807495117189	348.6003112792969	-413.1179504394532	509.5455017089845	345.4635314941407	-471.1074829101564	539.4625854492189	299.6884460449219	-443.9880676269532	510.9017944335939	292.2467041015626	-496.3769836425782	572.5623168945314	138.0015716552735	-420.7767333984376	548.1700439453126	93.81650543212892	-424.8258666992189	607.1502075195314	111.322494506836	-442.1204833984376	509.283416748047	108.1443710327149	-484.156463623047	605.2880859375001	133.0194091796875	-502.9720458984376	496.7677612304689	132.77685546875	-536.7727661132814	495.2510070800782	119.5170211791992	-571.6196899414064	529.0040893554689	155.5028228759766	-590.4631958007814	607.3959960937501	113.5501174926758	-552.2438964843751	484.1506958007814	95.32031250000001	-625.4545288085939	523.3442993164064	124.7228164672852	-651.8078613281251	600.1409912109376	109.3772583007813	-633.8461914062501	499.1654052734376	118.7828140258789	-707.0120239257814	113.4860382080078	645.8629150390626	61.90517044067384	96.26931762695315	623.7144775390626	8.205639839172365	141.1932220458985	567.1770019531251	45.00085449218751	136.5185699462891	550.9301757812501	-13.64694595336914	357.5216674804688	461.6227416992189	319.5386657714844	367.1714477539063	409.7897949218751	327.5877380371094	385.2477111816407	439.2287902832032	363.4033813476563	408.2915344238282	388.2681579589845	362.0530090332032	489.7639770507814	496.1339721679689	466.3667907714845	476.0130004882814	491.5072326660157	511.9725952148439	530.9536743164064	499.0077209472657	490.3297119140626	577.1082153320314	282.4315490722657	473.7733154296876	486.7957458496095	299.6134338378907	536.2863769531251	
13	0.05	233.5630950927735	1048.382446289063	23.36471748352051	136.8938598632813	1031.144165039063	66.34317779541017	217.8308105468751	1004.371337890625	-186.3486480712891	19.75823974609375	942.6856079101565	-93.98166656494142	389.0296020507814	797.2955322265627	-264.2984924316407	353.3146972656251	805.7979736328127	-312.6275329589844	385.9261169433595	735.2185058593751	-321.5151367187501	343.7749023437501	737.2330932617189	-362.1803588867188	527.4378662109376	342.3546142578126	-426.7561645507814	507.2261352539064	338.4530334472657	-484.6810302734376	537.4609375000001	293.2442016601563	-457.0223083496095	508.7201538085939	284.8222656250001	-509.1853332519532	571.5614013671876	132.0953674316407	-431.720916748047	547.3600463867189	87.52120208740236	-435.132537841797	606.2244873046876	105.4177017211914	-452.9535217285157	507.6316223144532	100.9542007446289	-494.3929138183595	603.7567749023439	126.4338073730469	-514.0328979492189	495.0233154296876	125.0943222045899	-547.1472167968751	493.3489379882814	111.3665313720703	-581.8602294921876	526.7091064453126	147.2545318603516	-601.1713867187501	605.6252441406251	106.3734893798828	-563.0722045898439	482.1318969726564	86.19284820556642	-635.2819213867189	520.9068603515626	115.6634902954102	-662.1599121093751	597.8352661132814	101.2413177490235	-644.5677490234376	496.3770141601564	108.9831008911133	-717.1245117187501	108.1225814819336	642.2337036132814	37.84475326538087	89.66568756103517	620.8818969726564	-15.82261466979981	133.577392578125	563.7792968750001	19.96140670776368	128.8153839111328	547.9649047851564	-39.34556961059571	347.2514648437501	465.1113891601564	289.1336975097657	357.6009521484376	413.8996887207032	298.5444030761719	375.1640625000001	444.1216430664064	333.5396423339844	398.920379638672	393.6820678710939	333.6450195312501	478.3322753906251	505.040008544922	436.2827453613282	465.0537719726564	500.6821899414064	482.0305175781251	519.4935913085939	508.9519653320314	460.1539611816407	569.1095581054689	292.8390502929688	446.347625732422	478.577362060547	309.5968933105469	509.0079956054689	
